#!OML:ASF X:\für Bonn\!DataBase\2005_08_12_Daniel\c3d\Daniel.ASF
:FULLY-SPECIFIED
:DEGREES
78
root 2.72266 17.6574 17.426 -4.74022 12.8713 0.344618
lowerback 4.35041 0.868259 1.20073
upperback 1.40367 1.16425 -4.82208
thorax -0.86885 0.598697 -5.72947
lowerneck 1.05308 -3.42494 -2.98819
upperneck 10.9811 -4.56992 0.675315
head 3.44833 -2.35128 0.612153
rclavicle -2.72459e-014 1.59028e-014
rhumerus 10.8003 0.0516824 -64.9093
rradius 92.5049
rwrist -3.70431
rhand -27.7728 19.3618
rfingers 7.12502
rthumb -1.16646 -10.6148
lclavicle -2.72459e-014 1.59028e-014
lhumerus -34.1365 36.309 67.6108
lradius 16.6948
lwrist -40.1851
lhand -2.88438 -4.37438
lfingers 7.12502
lthumb 22.8249 24.2951
rfemur 9.94758 16.9261 21.4071
rtibia 13.2139
rfoot -26.1549 -26.6844
rtoes -10.989
lfemur 0.506411 -16.1119 -19.7452
ltibia 26.287
lfoot -21.5302 8.00902
ltoes -12.6902
79
root 2.71885 17.6574 17.4293 -4.73388 13.0072 0.343872
lowerback 4.33123 0.956809 1.26682
upperback 1.39376 1.28508 -4.91088
thorax -0.851503 0.660169 -5.8666
lowerneck 1.04328 -3.55438 -3.02046
upperneck 11.0878 -4.7532 0.7908
head 3.49648 -2.43963 0.648888
rclavicle 5.34234e-016 -4.6118e-014
rhumerus 12.237 -0.347308 -64.3183
rradius 91.1963
rwrist -3.56671
rhand -27.2892 18.667
rfingers 7.12502
rthumb -0.699373 -11.3116
lclavicle 5.34234e-016 -4.6118e-014
lhumerus -34.1599 36.6923 67.3146
lradius 16.6006
lwrist -40.5878
lhand -2.94945 -4.5891
lfingers 7.12502
lthumb 22.7625 24.088
rfemur 9.9773 16.8739 21.4362
rtibia 13.2034
rfoot -26.2196 -26.7559
rtoes -10.9672
lfemur 0.477828 -16.1724 -19.7206
ltibia 26.2974
lfoot -21.5216 7.92989
ltoes -12.6961
80
root 2.71583 17.6565 17.4341 -4.73867 13.1221 0.358448
lowerback 4.30238 1.06549 1.34208
upperback 1.38802 1.43342 -5.03154
thorax -0.819509 0.736067 -6.04369
lowerneck 1.07754 -3.69789 -2.95659
upperneck 11.1721 -4.95986 0.91445
head 3.52644 -2.53534 0.671964
rclavicle 3.2464e-014 -3.81667e-014
rhumerus 13.5855 -0.798855 -63.789
rradius 89.7584
rwrist -3.37516
rhand -26.84 18.0222
rfingers 7.12502
rthumb -0.265513 -11.9574
lclavicle 3.2464e-014 -3.81667e-014
lhumerus -34.1242 36.8823 67.0946
lradius 16.5188
lwrist -40.8034
lhand -3.01797 -4.68963
lfingers 7.12502
lthumb 22.6967 23.9956
rfemur 10.0287 16.8061 21.4423
rtibia 13.1877
rfoot -26.2694 -26.7917
rtoes -10.9542
lfemur 0.470663 -16.1902 -19.7162
ltibia 26.3099
lfoot -21.5189 7.83364
ltoes -12.7043
81
root 2.71257 17.6569 17.4379 -4.73703 13.2557 0.356825
lowerback 4.28572 1.17037 1.41339
upperback 1.37286 1.57622 -5.12267
thorax -0.804655 0.808606 -6.1875
lowerneck 1.12761 -3.83654 -2.96829
upperneck 11.2301 -5.16115 1.06308
head 3.54788 -2.63046 0.716917
rclavicle -6.41702e-015 -3.18055e-014
rhumerus 14.9255 -1.24288 -63.2248
rradius 88.251
rwrist -3.29397
rhand -26.2425 17.4234
rfingers 7.12502
rthumb 0.311556 -12.5562
lclavicle -6.41702e-015 -3.18055e-014
lhumerus -34.1529 37.2666 66.7953
lradius 16.3993
lwrist -41.2832
lhand -3.158 -4.88176
lfingers 7.12502
lthumb 22.5623 23.8198
rfemur 10.0665 16.7256 21.4567
rtibia 13.1779
rfoot -26.3561 -26.8013
rtoes -10.8568
lfemur 0.446615 -16.2401 -19.7009
ltibia 26.319
lfoot -21.4964 7.77954
ltoes -12.8086
82
root 2.70935 17.6563 17.4427 -4.73568 13.3679 0.360004
lowerback 4.26746 1.27058 1.46688
upperback 1.35452 1.71204 -5.19666
thorax -0.793298 0.877414 -6.30256
lowerneck 1.19163 -3.96057 -3.07523
upperneck 11.287 -5.34554 1.25611
head 3.57151 -2.71955 0.793682
rclavicle -1.18215e-014 1.74931e-014
rhumerus 16.2962 -1.63159 -62.6418
rradius 86.5965
rwrist -3.14749
rhand -25.7227 16.8654
rfingers 7.12502
rthumb 0.813584 -13.1128
lclavicle -1.18215e-014 1.74931e-014
lhumerus -34.0965 37.2669 66.7306
lradius 16.3466
lwrist -41.2796
lhand -3.20017 -4.95863
lfingers 7.12502
lthumb 22.5218 23.7479
rfemur 10.1076 16.6678 21.4797
rtibia 13.173
rfoot -26.4203 -26.8425
rtoes -10.8382
lfemur 0.43877 -16.3025 -19.6919
ltibia 26.3273
lfoot -21.4996 7.72725
ltoes -12.8123
83
root 2.70605 17.6558 17.4478 -4.72532 13.5101 0.371125
lowerback 4.21111 1.3728 1.54542
upperback 1.36514 1.85312 -5.31971
thorax -0.726867 0.951019 -6.48255
lowerneck 1.16162 -4.10068 -3.02849
upperneck 11.379 -5.54965 1.414
head 3.61935 -2.81302 0.8296
rclavicle -4.63293e-014 4.29375e-014
rhumerus 17.6759 -2.11485 -62.1793
rradius 84.8192
rwrist -2.99481
rhand -25.1923 16.4088
rfingers 7.12502
rthumb 1.32588 -13.5668
lclavicle -4.63293e-014 4.29375e-014
lhumerus -34.039 37.564 66.4754
lradius 16.2424
lwrist -41.658
lhand -3.28444 -5.10829
lfingers 7.12502
lthumb 22.441 23.608
rfemur 10.1426 16.6097 21.4915
rtibia 13.166
rfoot -26.4926 -26.894
rtoes -10.6566
lfemur 0.406251 -16.3278 -19.6725
ltibia 26.3361
lfoot -21.4856 7.61038
ltoes -12.8215
84
root 2.70175 17.6551 17.4514 -4.73778 13.6666 0.380179
lowerback 4.22891 1.45955 1.58562
upperback 1.3434 1.96991 -5.39394
thorax -0.740601 1.00976 -6.59068
lowerneck 1.25026 -4.23155 -3.10127
upperneck 11.428 -5.74133 1.56943
head 3.63429 -2.90572 0.888582
rclavicle -1.89591e-014 7.95139e-015
rhumerus 18.9963 -2.48206 -61.6479
rradius 82.9516
rwrist -2.96196
rhand -24.6832 16.0955
rfingers 7.12502
rthumb 1.81755 -13.8765
lclavicle -1.89591e-014 7.95139e-015
lhumerus -34.1034 37.8376 66.2283
lradius 16.179
lwrist -42.0116
lhand -3.25136 -5.34109
lfingers 7.12502
lthumb 22.4727 23.3714
rfemur 10.2058 16.547 21.5189
rtibia 13.1422
rfoot -26.544 -26.9772
rtoes -10.6681
lfemur 0.38742 -16.3682 -19.6629
ltibia 26.3518
lfoot -21.4583 7.52544
ltoes -12.9329
85
root 2.69849 17.6544 17.457 -4.72785 13.7799 0.383695
lowerback 4.18752 1.56692 1.64781
upperback 1.34505 2.11689 -5.4928
thorax -0.690842 1.08582 -6.73636
lowerneck 1.20897 -4.36461 -3.03661
upperneck 11.5249 -5.93108 1.6706
head 3.68343 -2.99304 0.902802
rclavicle -1.26415e-014 6.36111e-015
rhumerus 20.3209 -2.88684 -61.1267
rradius 80.9928
rwrist -2.82712
rhand -24.2852 15.853
rfingers 7.12502
rthumb 2.20189 -14.1154
lclavicle -1.26415e-014 6.36111e-015
lhumerus -34.0283 37.8789 66.1242
lradius 16.1557
lwrist -42.1125
lhand -3.27236 -5.45603
lfingers 7.12502
lthumb 22.4526 23.2589
rfemur 10.247 16.5033 21.5413
rtibia 13.1188
rfoot -26.6049 -27.0344
rtoes -10.6475
lfemur 0.368982 -16.4444 -19.6561
ltibia 26.3675
lfoot -21.4678 7.4857
ltoes -13.0348
86
root 2.69497 17.6552 17.4614 -4.72721 13.9177 0.38146
lowerback 4.17527 1.65602 1.71987
upperback 1.32618 2.23872 -5.58
thorax -0.681164 1.14791 -6.87582
lowerneck 1.30386 -4.49364 -3.08772
upperneck 11.5593 -6.12085 1.82372
head 3.69195 -3.08402 0.957683
rclavicle -2.70844e-015 2.22639e-014
rhumerus 21.711 -3.21241 -60.6316
rradius 78.8282
rwrist -2.65656
rhand -23.9277 15.6448
rfingers 7.12502
rthumb 2.54714 -14.3198
lclavicle -2.70844e-015 2.22639e-014
lhumerus -34.053 38.1634 65.8411
lradius 16.0505
lwrist -42.4468
lhand -3.24823 -5.66508
lfingers 7.12502
lthumb 22.4757 23.047
rfemur 10.2969 16.4663 21.5805
rtibia 13.0933
rfoot -26.6762 -27.1238
rtoes -10.6381
lfemur 0.344247 -16.522 -19.6368
ltibia 26.3845
lfoot -21.4649 7.4212
ltoes -13.0381
87
root 2.69175 17.6545 17.4654 -4.72733 14.0567 0.382413
lowerback 4.17037 1.74297 1.77609
upperback 1.31766 2.3574 -5.66723
thorax -0.66528 1.2088 -7.00616
lowerneck 1.30482 -4.61366 -3.07663
upperneck 11.6193 -6.29624 1.95757
head 3.72386 -3.16541 0.993578
rclavicle -2.80908e-014 3.18055e-014
rhumerus 23.0507 -3.52573 -60.1125
rradius 76.6746
rwrist -2.45555
rhand -23.5881 15.4356
rfingers 7.12502
rthumb 2.87517 -14.5248
lclavicle -2.80908e-014 3.18055e-014
lhumerus -34.0327 38.2891 65.679
lradius 16.0132
lwrist -42.675
lhand -3.20007 -5.84991
lfingers 7.12502
lthumb 22.5219 22.8566
rfemur 10.3485 16.3568 21.5898
rtibia 13.0633
rfoot -26.7324 -27.1278
rtoes -10.5782
lfemur 0.312566 -16.5357 -19.615
ltibia 26.4022
lfoot -21.4413 7.32781
ltoes -13.1495
88
root 2.68808 17.6541 17.4704 -4.7119 14.1869 0.384624
lowerback 4.14134 1.83737 1.80668
upperback 1.29833 2.48495 -5.72252
thorax -0.647877 1.2737 -7.08706
lowerneck 1.37247 -4.74085 -3.16227
upperneck 11.664 -6.48215 2.10643
head 3.7434 -3.2559 1.0525
rclavicle 3.3694e-014 1.27222e-014
rhumerus 24.3418 -3.82095 -59.592
rradius 74.5092
rwrist -2.15809
rhand -23.3003 15.3124
rfingers 7.12502
rthumb 3.15312 -14.644
lclavicle 3.3694e-014 1.27222e-014
lhumerus -34.0406 38.4527 65.538
lradius 15.9727
lwrist -42.8761
lhand -3.19399 -5.95788
lfingers 7.12502
lthumb 22.5278 22.7479
rfemur 10.3891 16.319 21.6181
rtibia 13.0303
rfoot -26.7811 -27.2088
rtoes -10.6074
lfemur 0.277255 -16.6121 -19.5992
ltibia 26.4217
lfoot -21.4442 7.27091
ltoes -13.154
